<svg width="40" height="40" viewBox="0 0 40 40" fill="none" xmlns="http://www.w3.org/2000/svg">
<path d="M0 20C0 8.95431 8.95431 0 20 0C31.0457 0 40 8.95431 40 20C40 31.0457 31.0457 40 20 40C8.95431 40 0 31.0457 0 20Z" fill="#CD486B"/>
<mask id="mask0_1_296" style="mask-type:alpha" maskUnits="userSpaceOnUse" x="8" y="8" width="24" height="24">
<path d="M8.95001 8.98486H31.015V31.047H8.95001V8.98486Z" fill="white"/>
</mask>
<g mask="url(#mask0_1_296)">
<path fill-rule="evenodd" clip-rule="evenodd" d="M19.9826 8.98486C16.9863 8.98486 16.6106 8.99748 15.4339 9.05126C14.2595 9.10489 13.4575 9.29136 12.7559 9.56406C12.0303 9.84599 11.4151 10.2232 10.8017 10.8366C10.1884 11.4499 9.81114 12.0652 9.52925 12.7907C9.25641 13.4925 9.06994 14.2945 9.01641 15.4688C8.96268 16.6455 8.95001 17.0211 8.95001 20.0174C8.95001 23.0138 8.96268 23.3894 9.01641 24.5661C9.06994 25.7404 9.25641 26.5424 9.52925 27.2442C9.81114 27.9697 10.1884 28.585 10.8017 29.1983C11.4151 29.8117 12.0303 30.1889 12.7559 30.4709C13.4575 30.7435 14.2595 30.93 15.4339 30.9837C16.6106 31.0373 16.9863 31.05 19.9826 31.05C22.9788 31.05 23.3546 31.0373 24.5313 30.9837C25.7056 30.93 26.5076 30.7435 27.2093 30.4709C27.9348 30.1889 28.55 29.8117 29.1634 29.1983C29.7767 28.585 30.154 27.9697 30.4359 27.2442C30.7087 26.5424 30.8952 25.7404 30.9487 24.5661C31.0025 23.3894 31.0151 23.0138 31.0151 20.0174C31.0151 17.0211 31.0025 16.6455 30.9487 15.4688C30.8952 14.2945 30.7087 13.4925 30.4359 12.7907C30.154 12.0652 29.7767 11.4499 29.1634 10.8366C28.55 10.2232 27.9348 9.84599 27.2093 9.56406C26.5076 9.29136 25.7056 9.10489 24.5313 9.05126C23.3546 8.99748 22.9788 8.98486 19.9826 8.98486ZM19.9826 10.9727C22.9284 10.9727 23.2772 10.9839 24.4407 11.037C25.5163 11.0861 26.1005 11.2659 26.4892 11.4169C27.0043 11.617 27.3718 11.8561 27.7578 12.2422C28.1439 12.6283 28.383 12.9957 28.5831 13.5107C28.7341 13.8995 28.9139 14.4837 28.963 15.5593C29.016 16.7227 29.0273 17.0716 29.0273 20.0174C29.0273 22.9633 29.016 23.3122 28.963 24.4755C28.9139 25.5512 28.7341 26.1354 28.5831 26.5242C28.383 27.0391 28.1439 27.4066 27.7578 27.7927C27.3718 28.1788 27.0043 28.4179 26.4892 28.618C26.1005 28.7691 25.5163 28.9489 24.4407 28.9978C23.2774 29.051 22.9286 29.0622 19.9826 29.0622C17.0365 29.0622 16.6877 29.051 15.5244 28.9978C14.4488 28.9489 13.8646 28.7691 13.4759 28.618C12.9609 28.4179 12.5934 28.1788 12.2073 27.7927C11.8213 27.4066 11.5822 27.0391 11.3821 26.5242C11.231 26.1354 11.0513 25.5512 11.0021 24.4755C10.9491 23.3122 10.9379 22.9633 10.9379 20.0174C10.9379 17.0716 10.9491 16.7227 11.0021 15.5593C11.0513 14.4837 11.231 13.8995 11.3821 13.5107C11.5822 12.9957 11.8213 12.6283 12.2073 12.2422C12.5934 11.8561 12.9609 11.617 13.4759 11.4169C13.8646 11.2659 14.4488 11.0861 15.5244 11.037C16.6879 10.9839 17.0367 10.9727 19.9826 10.9727Z" fill="white"/>
</g>
<path fill-rule="evenodd" clip-rule="evenodd" d="M19.9825 23.6949C17.9515 23.6949 16.305 22.0485 16.305 20.0174C16.305 17.9864 17.9515 16.3399 19.9825 16.3399C22.0136 16.3399 23.6601 17.9864 23.6601 20.0174C23.6601 22.0485 22.0136 23.6949 19.9825 23.6949ZM19.9825 14.3521C16.8537 14.3521 14.3172 16.8886 14.3172 20.0174C14.3172 23.1464 16.8537 25.6828 19.9825 25.6828C23.1114 25.6828 25.6479 23.1464 25.6479 20.0174C25.6479 16.8886 23.1114 14.3521 19.9825 14.3521Z" fill="white"/>
<path fill-rule="evenodd" clip-rule="evenodd" d="M27.1957 14.1281C27.1957 14.8593 26.603 15.452 25.8718 15.452C25.1406 15.452 24.5479 14.8593 24.5479 14.1281C24.5479 13.3969 25.1406 12.8042 25.8718 12.8042C26.603 12.8042 27.1957 13.3969 27.1957 14.1281Z" fill="white"/>
</svg>
