<svg width="381" height="90" viewBox="0 0 381 90" fill="none" xmlns="http://www.w3.org/2000/svg">
<g filter="url(#filter0_d_1_52)">
<path d="M10 38C10 18.67 25.67 3 45 3H336C355.33 3 371 18.67 371 38C371 57.33 355.33 73 336 73H45C25.67 73 10 57.33 10 38Z" fill="white"/>
</g>
<path d="M60 23H30V53H60V23Z" fill="white"/>
<path d="M58.5 38C58.5 45.4558 52.4558 51.5 45 51.5C37.5442 51.5 31.5 45.4558 31.5 38C31.5 30.5442 37.5442 24.5 45 24.5C52.4558 24.5 58.5 30.5442 58.5 38Z" stroke="black" stroke-width="3"/>
<path fill-rule="evenodd" clip-rule="evenodd" d="M51.5 38L41.5 43.5V32.5L51.5 38Z" fill="black"/>
<path d="M79.2451 38.9658L79.4912 40.6533L79.8516 39.1328L82.3828 30.2031H83.8066L86.2764 39.1328L86.6279 40.6797L86.9004 38.957L88.8867 30.2031H90.583L87.4805 43H85.9424L83.3057 33.6748L83.1035 32.6992L82.9014 33.6748L80.168 43H78.6299L75.5361 30.2031H77.2236L79.2451 38.9658ZM97.7812 43C97.6875 42.8125 97.6113 42.4785 97.5527 41.998C96.7969 42.7832 95.8945 43.1758 94.8457 43.1758C93.9082 43.1758 93.1377 42.9121 92.5342 42.3848C91.9365 41.8516 91.6377 41.1777 91.6377 40.3633C91.6377 39.373 92.0127 38.6055 92.7627 38.0605C93.5186 37.5098 94.5791 37.2344 95.9443 37.2344H97.5264V36.4873C97.5264 35.9189 97.3564 35.4678 97.0166 35.1338C96.6768 34.7939 96.1758 34.624 95.5137 34.624C94.9336 34.624 94.4473 34.7705 94.0547 35.0635C93.6621 35.3564 93.4658 35.7109 93.4658 36.127H91.8311C91.8311 35.6523 91.998 35.1953 92.332 34.7559C92.6719 34.3105 93.1289 33.959 93.7031 33.7012C94.2832 33.4434 94.9189 33.3145 95.6104 33.3145C96.7061 33.3145 97.5645 33.5898 98.1855 34.1406C98.8066 34.6855 99.1289 35.4385 99.1523 36.3994V40.7764C99.1523 41.6494 99.2637 42.3438 99.4863 42.8594V43H97.7812ZM95.083 41.7607C95.5928 41.7607 96.0762 41.6289 96.5332 41.3652C96.9902 41.1016 97.3213 40.7588 97.5264 40.3369V38.3857H96.252C94.2598 38.3857 93.2637 38.9688 93.2637 40.1348C93.2637 40.6445 93.4336 41.043 93.7734 41.3301C94.1133 41.6172 94.5498 41.7607 95.083 41.7607ZM103.907 31.1875V33.4902H105.683V34.7471H103.907V40.6445C103.907 41.0254 103.986 41.3125 104.145 41.5059C104.303 41.6934 104.572 41.7871 104.953 41.7871C105.141 41.7871 105.398 41.752 105.727 41.6816V43C105.299 43.1172 104.883 43.1758 104.479 43.1758C103.752 43.1758 103.204 42.9561 102.835 42.5166C102.466 42.0771 102.281 41.4531 102.281 40.6445V34.7471H100.55V33.4902H102.281V31.1875H103.907ZM111.404 41.8486C111.984 41.8486 112.491 41.6729 112.925 41.3213C113.358 40.9697 113.599 40.5303 113.646 40.0029H115.184C115.154 40.5479 114.967 41.0664 114.621 41.5586C114.275 42.0508 113.812 42.4434 113.232 42.7363C112.658 43.0293 112.049 43.1758 111.404 43.1758C110.109 43.1758 109.078 42.7451 108.311 41.8838C107.549 41.0166 107.168 39.833 107.168 38.333V38.0605C107.168 37.1348 107.338 36.3115 107.678 35.5908C108.018 34.8701 108.504 34.3105 109.137 33.9121C109.775 33.5137 110.528 33.3145 111.396 33.3145C112.462 33.3145 113.347 33.6338 114.05 34.2725C114.759 34.9111 115.137 35.7402 115.184 36.7598H113.646C113.599 36.1445 113.364 35.6406 112.942 35.248C112.526 34.8496 112.011 34.6504 111.396 34.6504C110.569 34.6504 109.928 34.9492 109.471 35.5469C109.02 36.1387 108.794 36.9971 108.794 38.1221V38.4297C108.794 39.5254 109.02 40.3691 109.471 40.9609C109.922 41.5527 110.566 41.8486 111.404 41.8486ZM118.638 34.6416C119.358 33.7568 120.296 33.3145 121.45 33.3145C123.46 33.3145 124.474 34.4482 124.491 36.7158V43H122.865V36.707C122.859 36.0215 122.701 35.5146 122.391 35.1865C122.086 34.8584 121.608 34.6943 120.958 34.6943C120.431 34.6943 119.968 34.835 119.569 35.1162C119.171 35.3975 118.86 35.7666 118.638 36.2236V43H117.012V29.5H118.638V34.6416ZM126.873 42.1475C126.873 41.8662 126.955 41.6318 127.119 41.4443C127.289 41.2568 127.541 41.1631 127.875 41.1631C128.209 41.1631 128.461 41.2568 128.631 41.4443C128.807 41.6318 128.895 41.8662 128.895 42.1475C128.895 42.417 128.807 42.6426 128.631 42.8242C128.461 43.0059 128.209 43.0967 127.875 43.0967C127.541 43.0967 127.289 43.0059 127.119 42.8242C126.955 42.6426 126.873 42.417 126.873 42.1475ZM126.882 34.3867C126.882 34.1055 126.964 33.8711 127.128 33.6836C127.298 33.4961 127.55 33.4023 127.884 33.4023C128.218 33.4023 128.47 33.4961 128.64 33.6836C128.815 33.8711 128.903 34.1055 128.903 34.3867C128.903 34.6562 128.815 34.8818 128.64 35.0635C128.47 35.2451 128.218 35.3359 127.884 35.3359C127.55 35.3359 127.298 35.2451 127.128 35.0635C126.964 34.8818 126.882 34.6562 126.882 34.3867ZM145.84 43H144.144V37.085H137.692V43H136.005V30.2031H137.692V35.7051H144.144V30.2031H145.84V43ZM148.151 38.1572C148.151 37.2256 148.333 36.3877 148.696 35.6436C149.065 34.8994 149.575 34.3252 150.226 33.9209C150.882 33.5166 151.629 33.3145 152.467 33.3145C153.762 33.3145 154.808 33.7627 155.604 34.6592C156.407 35.5557 156.809 36.748 156.809 38.2363V38.3506C156.809 39.2764 156.63 40.1084 156.272 40.8467C155.921 41.5791 155.414 42.1504 154.752 42.5605C154.096 42.9707 153.34 43.1758 152.484 43.1758C151.195 43.1758 150.149 42.7275 149.347 41.8311C148.55 40.9346 148.151 39.748 148.151 38.2715V38.1572ZM149.786 38.3506C149.786 39.4053 150.029 40.252 150.516 40.8906C151.008 41.5293 151.664 41.8486 152.484 41.8486C153.311 41.8486 153.967 41.5264 154.453 40.8818C154.939 40.2314 155.183 39.3232 155.183 38.1572C155.183 37.1143 154.934 36.2705 154.436 35.626C153.943 34.9756 153.287 34.6504 152.467 34.6504C151.664 34.6504 151.017 34.9697 150.524 35.6084C150.032 36.2471 149.786 37.1611 149.786 38.3506ZM160.377 33.4902L160.421 34.5449C161.118 33.7246 162.059 33.3145 163.242 33.3145C164.572 33.3145 165.478 33.8242 165.958 34.8438C166.274 34.3867 166.685 34.0176 167.188 33.7363C167.698 33.4551 168.299 33.3145 168.99 33.3145C171.076 33.3145 172.137 34.4189 172.172 36.6279V43H170.546V36.7246C170.546 36.0449 170.391 35.5381 170.08 35.2041C169.77 34.8643 169.248 34.6943 168.516 34.6943C167.912 34.6943 167.411 34.876 167.013 35.2393C166.614 35.5967 166.383 36.0801 166.318 36.6895V43H164.684V36.7686C164.684 35.3857 164.007 34.6943 162.653 34.6943C161.587 34.6943 160.857 35.1484 160.465 36.0566V43H158.839V33.4902H160.377ZM178.579 43.1758C177.29 43.1758 176.241 42.7539 175.433 41.9102C174.624 41.0605 174.22 39.9268 174.22 38.5088V38.21C174.22 37.2666 174.398 36.4258 174.756 35.6875C175.119 34.9434 175.623 34.3633 176.268 33.9473C176.918 33.5254 177.621 33.3145 178.377 33.3145C179.613 33.3145 180.574 33.7217 181.26 34.5361C181.945 35.3506 182.288 36.5166 182.288 38.0342V38.7109H175.846C175.869 39.6484 176.142 40.4072 176.663 40.9873C177.19 41.5615 177.858 41.8486 178.667 41.8486C179.241 41.8486 179.728 41.7314 180.126 41.4971C180.524 41.2627 180.873 40.9521 181.172 40.5654L182.165 41.3389C181.368 42.5635 180.173 43.1758 178.579 43.1758ZM178.377 34.6504C177.721 34.6504 177.17 34.8906 176.725 35.3711C176.279 35.8457 176.004 36.5137 175.898 37.375H180.662V37.252C180.615 36.4258 180.393 35.7871 179.994 35.3359C179.596 34.8789 179.057 34.6504 178.377 34.6504ZM188.774 34.9492C188.528 34.9082 188.262 34.8877 187.975 34.8877C186.908 34.8877 186.185 35.3418 185.804 36.25V43H184.178V33.4902H185.76L185.786 34.5889C186.319 33.7393 187.075 33.3145 188.054 33.3145C188.37 33.3145 188.61 33.3555 188.774 33.4375V34.9492ZM196.148 42.0596C195.516 42.8037 194.587 43.1758 193.362 43.1758C192.349 43.1758 191.575 42.8828 191.042 42.2969C190.515 41.7051 190.248 40.832 190.242 39.6777V33.4902H191.868V39.6338C191.868 41.0752 192.454 41.7959 193.626 41.7959C194.868 41.7959 195.694 41.333 196.104 40.4072V33.4902H197.73V43H196.184L196.148 42.0596ZM201.747 33.4902L201.8 34.6855C202.526 33.7715 203.476 33.3145 204.647 33.3145C206.657 33.3145 207.671 34.4482 207.688 36.7158V43H206.062V36.707C206.057 36.0215 205.898 35.5146 205.588 35.1865C205.283 34.8584 204.806 34.6943 204.155 34.6943C203.628 34.6943 203.165 34.835 202.767 35.1162C202.368 35.3975 202.058 35.7666 201.835 36.2236V43H200.209V33.4902H201.747ZM216.372 43H214.746V33.4902H216.372V43ZM214.614 30.9678C214.614 30.7041 214.693 30.4814 214.852 30.2998C215.016 30.1182 215.256 30.0273 215.572 30.0273C215.889 30.0273 216.129 30.1182 216.293 30.2998C216.457 30.4814 216.539 30.7041 216.539 30.9678C216.539 31.2314 216.457 31.4512 216.293 31.627C216.129 31.8027 215.889 31.8906 215.572 31.8906C215.256 31.8906 215.016 31.8027 214.852 31.627C214.693 31.4512 214.614 31.2314 214.614 30.9678ZM220.521 33.4902L220.573 34.6855C221.3 33.7715 222.249 33.3145 223.421 33.3145C225.431 33.3145 226.444 34.4482 226.462 36.7158V43H224.836V36.707C224.83 36.0215 224.672 35.5146 224.361 35.1865C224.057 34.8584 223.579 34.6943 222.929 34.6943C222.401 34.6943 221.938 34.835 221.54 35.1162C221.142 35.3975 220.831 35.7666 220.608 36.2236V43H218.982V33.4902H220.521ZM239.443 37.375C239.104 37.7793 238.696 38.1045 238.222 38.3506C237.753 38.5967 237.237 38.7197 236.675 38.7197C235.937 38.7197 235.292 38.5381 234.741 38.1748C234.196 37.8115 233.774 37.3018 233.476 36.6455C233.177 35.9834 233.027 35.2539 233.027 34.457C233.027 33.6016 233.188 32.8311 233.511 32.1455C233.839 31.46 234.302 30.9355 234.899 30.5723C235.497 30.209 236.194 30.0273 236.991 30.0273C238.257 30.0273 239.253 30.502 239.979 31.4512C240.712 32.3945 241.078 33.6836 241.078 35.3184V35.793C241.078 38.2832 240.586 40.1025 239.602 41.251C238.617 42.3936 237.132 42.9795 235.146 43.0088H234.829V41.6377H235.172C236.514 41.6143 237.545 41.2656 238.266 40.5918C238.986 39.9121 239.379 38.8398 239.443 37.375ZM236.938 37.375C237.483 37.375 237.984 37.208 238.441 36.874C238.904 36.54 239.241 36.127 239.452 35.6348V34.9844C239.452 33.918 239.221 33.0508 238.758 32.3828C238.295 31.7148 237.709 31.3809 237 31.3809C236.285 31.3809 235.711 31.6562 235.277 32.207C234.844 32.752 234.627 33.4727 234.627 34.3691C234.627 35.2422 234.835 35.9629 235.251 36.5312C235.673 37.0938 236.235 37.375 236.938 37.375ZM251.344 37.542C251.344 39.4463 251.019 40.8613 250.368 41.7871C249.718 42.7129 248.701 43.1758 247.318 43.1758C245.953 43.1758 244.942 42.7246 244.286 41.8223C243.63 40.9141 243.29 39.5605 243.267 37.7617V35.5908C243.267 33.71 243.592 32.3125 244.242 31.3984C244.893 30.4844 245.912 30.0273 247.301 30.0273C248.678 30.0273 249.691 30.4697 250.342 31.3545C250.992 32.2334 251.326 33.5928 251.344 35.4326V37.542ZM249.718 35.3184C249.718 33.9414 249.524 32.9395 249.138 32.3125C248.751 31.6797 248.139 31.3633 247.301 31.3633C246.469 31.3633 245.862 31.6768 245.481 32.3037C245.101 32.9307 244.904 33.8945 244.893 35.1953V37.7969C244.893 39.1797 245.092 40.2021 245.49 40.8643C245.895 41.5205 246.504 41.8486 247.318 41.8486C248.121 41.8486 248.716 41.5381 249.103 40.917C249.495 40.2959 249.7 39.3174 249.718 37.9814V35.3184ZM263.596 40.4775C263.596 40.0381 263.429 39.6982 263.095 39.458C262.767 39.2119 262.189 39.001 261.363 38.8252C260.543 38.6494 259.89 38.4385 259.403 38.1924C258.923 37.9463 258.565 37.6533 258.331 37.3135C258.103 36.9736 257.988 36.5693 257.988 36.1006C257.988 35.3213 258.316 34.6621 258.973 34.123C259.635 33.584 260.479 33.3145 261.504 33.3145C262.582 33.3145 263.455 33.5928 264.123 34.1494C264.797 34.7061 265.134 35.418 265.134 36.2852H263.499C263.499 35.8398 263.309 35.4561 262.928 35.1338C262.553 34.8115 262.078 34.6504 261.504 34.6504C260.912 34.6504 260.449 34.7793 260.115 35.0371C259.781 35.2949 259.614 35.6318 259.614 36.0479C259.614 36.4404 259.77 36.7363 260.08 36.9355C260.391 37.1348 260.95 37.3252 261.759 37.5068C262.573 37.6885 263.232 37.9053 263.736 38.1572C264.24 38.4092 264.612 38.7139 264.853 39.0713C265.099 39.4229 265.222 39.8535 265.222 40.3633C265.222 41.2129 264.882 41.8955 264.202 42.4111C263.522 42.9209 262.641 43.1758 261.557 43.1758C260.795 43.1758 260.121 43.041 259.535 42.7715C258.949 42.502 258.489 42.127 258.155 41.6465C257.827 41.1602 257.663 40.6357 257.663 40.0732H259.289C259.318 40.6182 259.535 41.0518 259.939 41.374C260.35 41.6904 260.889 41.8486 261.557 41.8486C262.172 41.8486 262.664 41.7256 263.033 41.4795C263.408 41.2275 263.596 40.8936 263.596 40.4775ZM271.286 43.1758C269.997 43.1758 268.948 42.7539 268.14 41.9102C267.331 41.0605 266.927 39.9268 266.927 38.5088V38.21C266.927 37.2666 267.105 36.4258 267.463 35.6875C267.826 34.9434 268.33 34.3633 268.975 33.9473C269.625 33.5254 270.328 33.3145 271.084 33.3145C272.32 33.3145 273.281 33.7217 273.967 34.5361C274.652 35.3506 274.995 36.5166 274.995 38.0342V38.7109H268.553C268.576 39.6484 268.849 40.4072 269.37 40.9873C269.897 41.5615 270.565 41.8486 271.374 41.8486C271.948 41.8486 272.435 41.7314 272.833 41.4971C273.231 41.2627 273.58 40.9521 273.879 40.5654L274.872 41.3389C274.075 42.5635 272.88 43.1758 271.286 43.1758ZM271.084 34.6504C270.428 34.6504 269.877 34.8906 269.432 35.3711C268.986 35.8457 268.711 36.5137 268.605 37.375H273.369V37.252C273.322 36.4258 273.1 35.7871 272.701 35.3359C272.303 34.8789 271.764 34.6504 271.084 34.6504ZM280.699 41.8486C281.279 41.8486 281.786 41.6729 282.22 41.3213C282.653 40.9697 282.894 40.5303 282.94 40.0029H284.479C284.449 40.5479 284.262 41.0664 283.916 41.5586C283.57 42.0508 283.107 42.4434 282.527 42.7363C281.953 43.0293 281.344 43.1758 280.699 43.1758C279.404 43.1758 278.373 42.7451 277.605 41.8838C276.844 41.0166 276.463 39.833 276.463 38.333V38.0605C276.463 37.1348 276.633 36.3115 276.973 35.5908C277.312 34.8701 277.799 34.3105 278.432 33.9121C279.07 33.5137 279.823 33.3145 280.69 33.3145C281.757 33.3145 282.642 33.6338 283.345 34.2725C284.054 34.9111 284.432 35.7402 284.479 36.7598H282.94C282.894 36.1445 282.659 35.6406 282.237 35.248C281.821 34.8496 281.306 34.6504 280.69 34.6504C279.864 34.6504 279.223 34.9492 278.766 35.5469C278.314 36.1387 278.089 36.9971 278.089 38.1221V38.4297C278.089 39.5254 278.314 40.3691 278.766 40.9609C279.217 41.5527 279.861 41.8486 280.699 41.8486ZM285.876 38.1572C285.876 37.2256 286.058 36.3877 286.421 35.6436C286.79 34.8994 287.3 34.3252 287.95 33.9209C288.606 33.5166 289.354 33.3145 290.191 33.3145C291.486 33.3145 292.532 33.7627 293.329 34.6592C294.132 35.5557 294.533 36.748 294.533 38.2363V38.3506C294.533 39.2764 294.354 40.1084 293.997 40.8467C293.646 41.5791 293.139 42.1504 292.477 42.5605C291.82 42.9707 291.064 43.1758 290.209 43.1758C288.92 43.1758 287.874 42.7275 287.071 41.8311C286.274 40.9346 285.876 39.748 285.876 38.2715V38.1572ZM287.511 38.3506C287.511 39.4053 287.754 40.252 288.24 40.8906C288.732 41.5293 289.389 41.8486 290.209 41.8486C291.035 41.8486 291.691 41.5264 292.178 40.8818C292.664 40.2314 292.907 39.3232 292.907 38.1572C292.907 37.1143 292.658 36.2705 292.16 35.626C291.668 34.9756 291.012 34.6504 290.191 34.6504C289.389 34.6504 288.741 34.9697 288.249 35.6084C287.757 36.2471 287.511 37.1611 287.511 38.3506ZM298.11 33.4902L298.163 34.6855C298.89 33.7715 299.839 33.3145 301.011 33.3145C303.021 33.3145 304.034 34.4482 304.052 36.7158V43H302.426V36.707C302.42 36.0215 302.262 35.5146 301.951 35.1865C301.646 34.8584 301.169 34.6943 300.519 34.6943C299.991 34.6943 299.528 34.835 299.13 35.1162C298.731 35.3975 298.421 35.7666 298.198 36.2236V43H296.572V33.4902H298.11ZM306.108 38.166C306.108 36.707 306.454 35.5352 307.146 34.6504C307.837 33.7598 308.742 33.3145 309.861 33.3145C310.975 33.3145 311.856 33.6953 312.507 34.457V29.5H314.133V43H312.639L312.56 41.9805C311.909 42.7773 311.004 43.1758 309.844 43.1758C308.742 43.1758 307.843 42.7246 307.146 41.8223C306.454 40.9199 306.108 39.7422 306.108 38.2891V38.166ZM307.734 38.3506C307.734 39.4287 307.957 40.2725 308.402 40.8818C308.848 41.4912 309.463 41.7959 310.248 41.7959C311.279 41.7959 312.032 41.333 312.507 40.4072V36.0391C312.021 35.1426 311.273 34.6943 310.266 34.6943C309.469 34.6943 308.848 35.002 308.402 35.6172C307.957 36.2324 307.734 37.1436 307.734 38.3506ZM322.201 40.4775C322.201 40.0381 322.034 39.6982 321.7 39.458C321.372 39.2119 320.795 39.001 319.969 38.8252C319.148 38.6494 318.495 38.4385 318.009 38.1924C317.528 37.9463 317.171 37.6533 316.937 37.3135C316.708 36.9736 316.594 36.5693 316.594 36.1006C316.594 35.3213 316.922 34.6621 317.578 34.123C318.24 33.584 319.084 33.3145 320.109 33.3145C321.188 33.3145 322.061 33.5928 322.729 34.1494C323.402 34.7061 323.739 35.418 323.739 36.2852H322.104C322.104 35.8398 321.914 35.4561 321.533 35.1338C321.158 34.8115 320.684 34.6504 320.109 34.6504C319.518 34.6504 319.055 34.7793 318.721 35.0371C318.387 35.2949 318.22 35.6318 318.22 36.0479C318.22 36.4404 318.375 36.7363 318.686 36.9355C318.996 37.1348 319.556 37.3252 320.364 37.5068C321.179 37.6885 321.838 37.9053 322.342 38.1572C322.846 38.4092 323.218 38.7139 323.458 39.0713C323.704 39.4229 323.827 39.8535 323.827 40.3633C323.827 41.2129 323.487 41.8955 322.808 42.4111C322.128 42.9209 321.246 43.1758 320.162 43.1758C319.4 43.1758 318.727 43.041 318.141 42.7715C317.555 42.502 317.095 42.127 316.761 41.6465C316.433 41.1602 316.269 40.6357 316.269 40.0732H317.895C317.924 40.6182 318.141 41.0518 318.545 41.374C318.955 41.6904 319.494 41.8486 320.162 41.8486C320.777 41.8486 321.27 41.7256 321.639 41.4795C322.014 41.2275 322.201 40.8936 322.201 40.4775Z" fill="black"/>
<defs>
<filter id="filter0_d_1_52" x="0" y="0" width="381" height="90" filterUnits="userSpaceOnUse" color-interpolation-filters="sRGB">
<feFlood flood-opacity="0" result="BackgroundImageFix"/>
<feColorMatrix in="SourceAlpha" type="matrix" values="0 0 0 0 0 0 0 0 0 0 0 0 0 0 0 0 0 0 127 0" result="hardAlpha"/>
<feOffset dy="7"/>
<feGaussianBlur stdDeviation="5"/>
<feColorMatrix type="matrix" values="0 0 0 0 0.729412 0 0 0 0 0.756863 0 0 0 0 0.772549 0 0 0 0.2 0"/>
<feBlend mode="normal" in2="BackgroundImageFix" result="effect1_dropShadow_1_52"/>
<feBlend mode="normal" in="SourceGraphic" in2="effect1_dropShadow_1_52" result="shape"/>
</filter>
</defs>
</svg>
